<svg width="20" height="35" viewBox="0 0 20 35" fill="none" xmlns="http://www.w3.org/2000/svg">
<path d="M3.02779 33.2011L2.68146 33.5281L3.02777 33.2011L1.37611 31.4522C0.867427 30.9136 0.866383 30.03 1.37396 29.4901L12.5969 17.5511L12.9036 17.2248L12.5969 16.8986L1.37396 4.95969C0.866383 4.41973 0.867426 3.53612 1.37611 2.99752L3.02777 1.24871C3.52278 0.724594 4.31337 0.724621 4.80828 1.24869L4.8083 1.24871L18.9694 16.2427L18.9694 16.2427C19.4789 16.7821 19.479 17.6675 18.9694 18.2071C18.9694 18.2071 18.9694 18.2071 18.9694 18.2071L4.8083 33.2011C4.31329 33.7252 3.5227 33.7251 3.02779 33.2011Z" fill="white" stroke="white" stroke-width="0.952717"/>
</svg>
