<svg width="29" height="29" viewBox="0 0 29 29" fill="none" xmlns="http://www.w3.org/2000/svg">
<path d="M8.61035 15.4619C8.95553 15.4619 9.23535 15.182 9.23535 14.8369C9.23535 14.4918 8.95553 14.2119 8.61035 14.2119C8.26518 14.2119 7.98535 14.4918 7.98535 14.8369C7.98535 15.182 8.26518 15.4619 8.61035 15.4619Z" fill="white" stroke="white" stroke-width="3" stroke-linecap="round" stroke-linejoin="round"/>
<path d="M14.8604 15.4619C15.2055 15.4619 15.4854 15.182 15.4854 14.8369C15.4854 14.4918 15.2055 14.2119 14.8604 14.2119C14.5152 14.2119 14.2354 14.4918 14.2354 14.8369C14.2354 15.182 14.5152 15.4619 14.8604 15.4619Z" fill="white" stroke="white" stroke-width="3" stroke-linecap="round" stroke-linejoin="round"/>
<path d="M21.1104 15.4619C21.4555 15.4619 21.7354 15.182 21.7354 14.8369C21.7354 14.4918 21.4555 14.2119 21.1104 14.2119C20.7652 14.2119 20.4854 14.4918 20.4854 14.8369C20.4854 15.182 20.7652 15.4619 21.1104 15.4619Z" fill="white" stroke="white" stroke-width="3" stroke-linecap="round" stroke-linejoin="round"/>
<path d="M14.8604 27.3369C21.7639 27.3369 27.3604 21.7404 27.3604 14.8369C27.3604 7.93335 21.7639 2.33691 14.8604 2.33691C7.95679 2.33691 2.36035 7.93335 2.36035 14.8369C2.36035 21.7404 7.95679 27.3369 14.8604 27.3369Z" stroke="white" stroke-width="3" stroke-linecap="round" stroke-linejoin="round"/>
</svg>
