<svg width="22" height="21" viewBox="0 0 22 21" fill="none" xmlns="http://www.w3.org/2000/svg">
<path d="M12.4395 1.9955C11.9994 0.595296 10.0178 0.595291 9.57763 1.9955L8.14505 6.55258C8.07956 6.76091 7.88644 6.90264 7.66806 6.90264H2.96368C1.52262 6.90264 0.910626 8.73676 2.06296 9.60209L5.92509 12.5023C6.09458 12.6296 6.1654 12.8499 6.10184 13.0521L4.64014 17.7018C4.20295 19.0925 5.80608 20.2265 6.97182 19.3511L10.7083 16.5452C10.8862 16.4116 11.131 16.4116 11.3088 16.5452L15.0453 19.3511C16.2111 20.2265 17.8142 19.0925 17.377 17.7018L15.9153 13.0521C15.8518 12.8499 15.9226 12.6296 16.0921 12.5023L19.9542 9.60209C21.1065 8.73677 20.4946 6.90264 19.0535 6.90264H14.3491C14.1307 6.90264 13.9376 6.76091 13.8721 6.55258L12.4395 1.9955Z" fill="#D9C29E" stroke="#D9C29E"/>
</svg>
