<svg width="70" height="70" viewBox="0 0 70 70" fill="none"
    xmlns="http://www.w3.org/2000/svg">
    <path d="M30.0278 50.2011L29.6815 50.5281L30.0278 50.2011L28.3761 48.4522C27.8674 47.9136 27.8664 47.03 28.374 46.4901L39.5969 34.5511L39.9036 34.2248L39.5969 33.8986L28.374 21.9597C27.8664 21.4197 27.8674 20.5361 28.3761 19.9975L30.0278 18.2487C30.5228 17.7246 31.3134 17.7246 31.8083 18.2487L31.8083 18.2487L45.9694 33.2427L45.9694 33.2427C46.4789 33.7821 46.479 34.6675 45.9694 35.2071C45.9694 35.2071 45.9694 35.2071 45.9694 35.2071L31.8083 50.2011C31.3133 50.7252 30.5227 50.7251 30.0278 50.2011Z" fill="#783BA2" stroke="#783BA2" stroke-width="0.952717"/>
    <circle cx="35" cy="35" r="32" stroke="#783BA2" stroke-width="6"/>
</svg>
