<svg
  width="166"
  height="163"
  viewBox="0 0 166 163"
  fill="none"
  xmlns="http://www.w3.org/2000/svg"
>
  <g filter="url(#filter0_d_513_192)">
    <path
      d="M4 1.49271e-05L100.571 0C100.571 0 192.4 0.00132581 150.581 0.00064829C108.763 -2.92322e-05 4 154.782 4 154.782V1.49271e-05Z"
      fill="#00BE98"
    />
  </g>
  <path
    d="M0.601562 0C27.203 0 68.7188 0 68.7188 0V8.69662H0.601562V0Z"
    fill="#00BE98"
    transform="translate(80, -3)"
  />
    <svg xmlns="http://www.w3.org/2000/svg" width="59" height="36" viewBox="-14 37 150 50">
     <path fill="#fff" d="m1.024 3.672.9-1.95 6.39-1.14-.9 1.92zm-.51 3.03.9-1.92 6.42-1.17-.9 1.92zm7.334 21.95q-2.61 0-4.02-1.68-1.2-1.44-1.2-3.66v-12.63l2.58-1.38v13.92q0 3 2.94 3h1.98v2.43zm10.907-2.43h1.98v2.43h-2.28q-2.49 0-3.93-1.59-1.44 1.59-3.93 1.59h-2.28v-2.43h1.98q2.94 0 2.94-3v-6.21l2.58-1.38v7.59q0 3 2.94 3m-4.41 5.43q1.44 0 1.44 1.47 0 1.5-1.44 1.5-1.47 0-1.47-1.5 0-1.47 1.47-1.47m4.575-3v-2.43h1.98q2.94 0 2.94-3v-6.21l2.58-1.38v7.68q0 2.55-1.53 4.02-1.41 1.32-3.69 1.32zm1.59 5.97q-1.47 0-1.47-1.5 0-1.47 1.47-1.47 1.44 0 1.44 1.47 0 1.5-1.44 1.5m3.81 0q-1.47 0-1.47-1.5 0-1.47 1.47-1.47 1.44 0 1.44 1.47 0 1.5-1.44 1.5m16.8-8.4h1.98v2.43h-2.28q-1.53 0-2.64-.6-.27 2.97-2.07 4.74-1.65 1.62-4.14 1.62-1.8 0-3.51-.9v-2.25q1.53.84 3.06.84 1.92 0 3-1.29t1.08-3.57v-10.23l2.58-1.38v.03l.03-.03v8.19q.27 2.4 2.91 2.4m8.013-14.01q-1.47 0-1.47-1.5 0-1.47 1.47-1.47 1.44 0 1.44 1.47 0 1.5-1.44 1.5m3.81 0q-1.47 0-1.47-1.5 0-1.47 1.47-1.47 1.44 0 1.44 1.47 0 1.5-1.44 1.5m-11.64 16.44v-2.43h5.4q-1.38-1.53-1.38-4.26 0-3.27 1.71-5.1 1.5-1.62 3.99-1.62 2.55 0 3.96 1.59 1.2 1.41 1.2 3.69v2.85q-.03 2.49-1.47 3.93-1.41 1.35-3.75 1.35zm12.3-8.01q0-3-2.58-3-1.47 0-2.31 1.14-.84 1.11-.84 3.12 0 1.98.81 3.15t2.16 1.17q2.76 0 2.76-2.88z">    </path>
    </svg>  
    <defs>
        <filter
        id="filter0_d_513_192"
        x="0"
        y="0"
        width="165.496"
        height="162.782"
        filterUnits="userSpaceOnUse"
        color-interpolation-filters="sRGB"
        >
        <feFlood flood-opacity="0" result="BackgroundImageFix" />
        <feColorMatrix
            in="SourceAlpha"
            type="matrix"
            values="0 0 0 0 0 0 0 0 0 0 0 0 0 0 0 0 0 0 127 0"
            result="hardAlpha"
        />
        <feOffset dy="4" />
        <feGaussianBlur stdDeviation="2" />
        <feComposite in2="hardAlpha" operator="out" />
        <feColorMatrix
            type="matrix"
            values="0 0 0 0 0 0 0 0 0 0 0 0 0 0 0 0 0 0 0.25 0"
        />
        <feBlend
            mode="normal"
            in2="BackgroundImageFix"
            result="effect1_dropShadow_513_192"
        />
        <feBlend
            mode="normal"
            in="SourceGraphic"
            in2="effect1_dropShadow_513_192"
            result="shape"
        />
        </filter>
    </defs>
</svg>
